# xmcd
#
# Track frame offsets:
#	150
#	11184
#	18174
#	29244
#	39453
#	46124
#	57126
#	64605
#	71994
#	91194
#	97062
#	107918
#	120653
#	129329
#	139793
#	145862
#	158165
#	173768
#	179820
#	192448
#	199639
#	211867
#
# Disc length: 2921 seconds
#
# Revision: 1
# Processed by: cddbd v1.5.2PL0 Copyright (c) Steve Scherf et al.
# Submitted via: audiograbber 1.83.01
#
DISCID=400b6716
DTITLE=Tanngrindler Musikanten - 40 Jahre und kein bischen leise
DYEAR=2010
DGENRE=Folklore
TTITLE0=Trocadero-Marsch
TTITLE1=Zwiefacher (aus Schmidmühlen)
TTITLE2=Nein, bitte nicht (Walzer)
TTITLE3=Sag mir warum (Polka)
TTITLE4=Sedlák (Zwiefacher)
TTITLE5=Martha Polka
TTITLE6=D' Forelln (Zwiefacher)
TTITLE7=Schottisch
TTITLE8=Smasal Walzer
TTITLE9=Da Laaberer (Zwiefacher)
TTITLE10=Donaugiggerl-Marsch
TTITLE11=Kutscher Polka
TTITLE12=Schweinerne Arschkarrn (Zwiefacher)
TTITLE13=Schottisch
TTITLE14=Zaunkönig (Zwiefacher)
TTITLE15=Liebe der Musikanten (Polka)
TTITLE16=Kannst du mir verzeihen (Walzer)
TTITLE17=Stoamauer (Zwiefacher)
TTITLE18=Schmachtendorfer Polka
TTITLE19='s Dearnal hot an Brandweinrausch (Zwiefacher)
TTITLE20=D' Kou hot glacht (Schottisch)
TTITLE21=Schwarz Mauserl (Zwiefacher)
EXTD=
EXTT0=
EXTT1=
EXTT2=
EXTT3=
EXTT4=
EXTT5=
EXTT6=
EXTT7=
EXTT8=
EXTT9=
EXTT10=
EXTT11=
EXTT12=
EXTT13=
EXTT14=
EXTT15=
EXTT16=
EXTT17=
EXTT18=
EXTT19=
EXTT20=
EXTT21=
PLAYORDER=
